<?xml version="1.0" encoding="iso-8859-1"?>
<!-- Generator: Adobe Illustrator 19.0.0, SVG Export Plug-In . SVG Version: 6.00 Build 0)  -->
<svg version="1.1" id="Layer_1" xmlns="http://www.w3.org/2000/svg" xmlns:xlink="http://www.w3.org/1999/xlink" x="0px" y="0px"
	 viewBox="0 0 489.994 489.994" style="enable-background:new 0 0 489.994 489.994;" xml:space="preserve">
<g id="XMLID_1254_">
	<g id="XMLID_1258_">
		<path style="fill:#CBBBA0;" d="M244.997,229.686c-76.111,0-137.811,61.7-137.811,137.811v45.937h275.621v-45.937
			C382.807,291.385,321.107,229.686,244.997,229.686z"/>
	</g>
	<g id="XMLID_1250_">
		<rect x="76.561" y="390.465" style="fill:#CA9E67;" width="45.937" height="22.969"/>
	</g>
	<g id="XMLID_1255_">
		<rect x="367.457" y="390.465" style="fill:#CA9E67;" width="45.937" height="22.969"/>
	</g>
	<g id="XMLID_1249_">
		<polygon style="fill:#CBBBA0;" points="160.779,405.777 160.779,237.342 199.06,260.31 244.997,267.966 275.621,267.966 
			329.214,237.342 329.214,398.121 313.902,413.433 168.435,413.433 		"/>
	</g>
	<g id="XMLID_1253_">
		<polygon style="fill:#CA9E67;" points="222.028,267.966 222.028,290.935 244.997,329.215 267.965,290.935 267.965,267.966 		"/>
	</g>
	<g id="XMLID_1252_">
		<path style="fill:#CA9E67;" d="M199.06,413.433c0-25.37,20.567-45.937,45.937-45.937s45.937,20.567,45.937,45.937"/>
	</g>
	<g id="XMLID_1233_">
		<polygon style="fill:#CA9E67;" points="176.091,283.279 199.06,275.622 199.06,260.31 176.091,244.997 		"/>
	</g>
	<g id="XMLID_1251_">
		<polygon style="fill:#CA9E67;" points="313.902,283.279 290.934,275.622 290.934,260.31 313.902,244.997 		"/>
	</g>
	<g id="XMLID_591_">
		<g id="XMLID_621_">
			<rect x="199.06" y="352.34" style="fill:#FFFFFF;" width="15.312" height="15"/>
		</g>
		<g id="XMLID_630_">
			<rect x="275.622" y="352.34" style="fill:#FFFFFF;" width="15.311" height="15"/>
		</g>
		<g id="XMLID_598_">
			<rect x="237.497" y="283.278" style="fill:#1D1D1B;" width="15" height="53.594"/>
		</g>
		<g id="XMLID_631_">
			<rect x="260.465" y="283.278" style="fill:#1D1D1B;" width="15" height="15.313"/>
		</g>
		<g id="XMLID_633_">
			<rect x="214.528" y="283.278" style="fill:#1D1D1B;" width="15" height="15.313"/>
		</g>
	</g>
	<g>
		<path style="fill:#1D1D1B;" d="M427.652,405.933c-3.35-13.186-15.319-22.969-29.532-22.969h-13.773l-47.632-20.414v-87.635
			c24.694,24.371,38.593,57.321,38.593,92.58v7.656h15v-7.656c0-44.098-19.487-84.958-53.593-112.707v-31.461l-23.648,15.765
			c-18.668-9.906-39.382-15.603-60.57-16.695v-23.336c0-12.751,10.374-23.125,23.125-23.125c21.022,0,38.124-17.103,38.124-38.125
			s-17.102-38.124-38.124-38.124h-15.313c-4.308,0-7.812-3.505-7.812-7.813s3.505-7.813,7.812-7.813v-15
			c-12.579,0-22.812,10.233-22.812,22.813c0,12.58,10.233,22.813,22.812,22.813h15.313c12.751,0,23.124,10.373,23.124,23.124
			s-10.373,23.125-23.124,23.125c-21.023,0-38.125,17.102-38.125,38.125v23.337c-21.189,1.093-41.901,6.79-60.57,16.696
			l-23.648-15.765v31.462c-34.105,27.749-53.593,68.611-53.593,112.706v7.656h15v-7.656c0-35.257,13.899-68.209,38.593-92.58v87.634
			l-47.632,20.414H91.874c-14.213,0-26.182,9.783-29.532,22.969H0v15h153.279h183.436h153.279v-15h-62.342V405.933z
			 M411.638,405.933H369.29c2.644-4.747,7.709-7.969,13.517-7.969h15.313C403.928,397.965,408.993,401.187,411.638,405.933z
			 M214.528,240.797v11.857h15V238.12c5.119-0.61,10.282-0.935,15.468-0.935s10.35,0.325,15.469,0.935v14.534h15v-11.857
			c7.954,1.907,15.718,4.549,23.174,7.914l-17.632,11.755h-72.02l-17.632-11.755C198.811,245.346,206.574,242.704,214.528,240.797z
			 M91.874,397.965h15.312c5.808,0,10.874,3.222,13.518,7.969H78.356C81,401.187,86.065,397.965,91.874,397.965z M136.718,405.933
			c-1.584-6.233-5.096-11.702-9.859-15.74l26.42-11.323v27.063H136.718z M168.279,405.933V251.355l26.665,17.777l-8.843,8.842
			l10.606,10.607l13.116-13.115h70.348l13.115,13.115l10.607-10.607l-8.843-8.843l26.664-17.777v154.578L168.279,405.933
			L168.279,405.933z M336.714,378.87l26.421,11.323c-4.763,4.038-8.276,9.507-9.859,15.74h-16.561L336.714,378.87L336.714,378.87z"
			/>
		<polygon style="fill:#1D1D1B;" points="229.685,397.965 237.497,397.965 237.497,408.777 252.497,408.777 252.497,397.965 
			260.309,397.965 260.309,382.965 229.685,382.965 		"/>
	</g>
</g>
<g>
</g>
<g>
</g>
<g>
</g>
<g>
</g>
<g>
</g>
<g>
</g>
<g>
</g>
<g>
</g>
<g>
</g>
<g>
</g>
<g>
</g>
<g>
</g>
<g>
</g>
<g>
</g>
<g>
</g>
</svg>
