<svg xmlns="http://www.w3.org/2000/svg" viewBox="0 0 302.79 302.79"><defs><style>.cls-1,.cls-2{stroke:#000;stroke-miterlimit:10;}.cls-2{fill:#fff;}</style></defs><g id="Layer_7" data-name="Layer 7"><rect class="cls-1" x="0.5" y="0.5" width="301.79" height="301.79" rx="12"/></g><g id="Layer_6" data-name="Layer 6"><path class="cls-2" d="M207.46,254.28l-47.55,54.35c-10.9,12.46-10.24,32.22,1.46,43.92h0A31.67,31.67,0,0,0,208.12,351l42-48Z" transform="translate(-104.16 -93.39)"/><path class="cls-2" d="M348.06,142.28h0a32.19,32.19,0,0,0-45.28,3l-47.28,54a.07.07,0,0,1-.1,0l-47.23-54a31.75,31.75,0,0,0-46.85-1.56h0c-11.67,11.67-12.33,31.38-1.46,43.81l48.75,55.73,46.79,53.48a.06.06,0,0,0,.1,0l95.58-109.26A32.19,32.19,0,0,0,348.06,142.28Zm-7.57,34.28-12.44,14.22a16.9,16.9,0,0,1-23.78,1.59h0a16.91,16.91,0,0,1-1.59-23.78l12.44-14.22a16.85,16.85,0,0,1,25.37,22.19Z" transform="translate(-104.16 -93.39)"/><circle class="cls-2" cx="223.42" cy="236.92" r="31.4"/></g></svg>